<svg width="256" height="256" viewBox="0 0 256 256" fill="none" xmlns="http://www.w3.org/2000/svg">
  <defs>
    <linearGradient id="bg" x1="18" y1="20" x2="236" y2="236" gradientUnits="userSpaceOnUse">
      <stop offset="0" stop-color="#0B1026"/>
      <stop offset="0.5" stop-color="#123A68"/>
      <stop offset="1" stop-color="#0B7A75"/>
    </linearGradient>
    <linearGradient id="chip" x1="48" y1="56" x2="206" y2="208" gradientUnits="userSpaceOnUse">
      <stop offset="0" stop-color="#7DD3FC"/>
      <stop offset="1" stop-color="#A7F3D0"/>
    </linearGradient>
    <linearGradient id="letter" x1="108" y1="104" x2="168" y2="175" gradientUnits="userSpaceOnUse">
      <stop offset="0" stop-color="#E2FEFF"/>
      <stop offset="1" stop-color="#BDF5E2"/>
    </linearGradient>
  </defs>

  <rect x="12" y="12" width="232" height="232" rx="52" fill="url(#bg)"/>
  <rect x="24" y="24" width="208" height="208" rx="44" stroke="rgba(255,255,255,0.22)" stroke-width="2"/>

  <rect x="48" y="48" width="160" height="160" rx="30" fill="rgba(8,20,44,0.45)" stroke="url(#chip)" stroke-width="2"/>

  <line x1="40" y1="84" x2="54" y2="84" stroke="#8BEAF0" stroke-width="3" stroke-linecap="round"/>
  <line x1="40" y1="128" x2="54" y2="128" stroke="#8BEAF0" stroke-width="3" stroke-linecap="round"/>
  <line x1="40" y1="172" x2="54" y2="172" stroke="#8BEAF0" stroke-width="3" stroke-linecap="round"/>
  <line x1="202" y1="84" x2="216" y2="84" stroke="#8BEAF0" stroke-width="3" stroke-linecap="round"/>
  <line x1="202" y1="128" x2="216" y2="128" stroke="#8BEAF0" stroke-width="3" stroke-linecap="round"/>
  <line x1="202" y1="172" x2="216" y2="172" stroke="#8BEAF0" stroke-width="3" stroke-linecap="round"/>

  <circle cx="154" cy="100" r="6" fill="#A5F3FC"/>
  <circle cx="172" cy="112" r="4" fill="#99F6E4"/>
  <line x1="160" y1="102" x2="168" y2="109" stroke="#A5F3FC" stroke-width="2" stroke-linecap="round"/>

  <path d="M129 94C146 94 158 107 158 122V165H144V124C144 114 138 108 129 108C120 108 114 114 114 124V165H100V122C100 107 112 94 129 94Z" fill="url(#letter)"/>
  <rect x="126" y="132" width="26" height="12" rx="6" fill="rgba(10,35,56,0.9)"/>

  <path d="M62 186C69 177 82 174 94 177L111 181C117 183 121 188 123 194L125 199L90 208L86 198L73 201C66 202 60 198 58 192C57 190 58 188 59 187L62 186Z" fill="rgba(16,61,89,0.9)" stroke="#8BEAF0" stroke-width="2"/>
  <rect x="93" y="170" width="8" height="14" rx="3" fill="#A5F3FC"/>
  <rect x="103" y="168" width="8" height="15" rx="3" fill="#99F6E4"/>
  <rect x="113" y="170" width="8" height="13" rx="3" fill="#A5F3FC"/>

  <path d="M128 202C152 198 171 190 191 177" stroke="rgba(153,246,228,0.65)" stroke-width="3" stroke-linecap="round"/>
  <circle cx="196" cy="174" r="6" fill="#99F6E4"/>
</svg>
